<svg xmlns="http://www.w3.org/2000/svg" xmlns:xlink="http://www.w3.org/1999/xlink" version="1.1" x="0px" y="0px" viewBox="0 0 425 195" xml:space="preserve" class="style0"><style>.style0{enable-background:	new 0 0 425 195;}.style1{overflow:	visible;}.style10{font-family:	'Soleil-SemiBold';font-size:	72;letter-spacing:	-1;}.style2{fill:	none;}.style3{font-family:	'Soleil-ExtraBold';font-size:	72;}.style4{font-family:	'Soleil-Light';font-size:	72;}.style5{font-family:	'Soleil-Light';font-size:	72;letter-spacing:	-5;}.style6{font-family:	'Soleil-Light';font-size:	72;letter-spacing:	-2;}.style7{font-family:	'Soleil-Light';font-size:	72;letter-spacing:	-1;}.style8{font-family:	'Soleil-SemiBold';font-size:	72;}.style9{font-family:	'Soleil-SemiBold';font-size:	72;letter-spacing:	2;}</style><style type="text/css">.st0{filter:url(#Adobe_OpacityMaskFilter);}.st1{fill:#FFFFFF;}.st2{mask:url(#Mh18GW.tif_1_);}</style><g id="Layer_1"><g><g><path d="M2.5 73.1h16.8c6 0 12.3 1 16.8 4c5 3.3 7.5 8.2 7.5 13.8c0 4.8-2.6 9.3-7.1 11.5c5.6 2 9.7 7.6 9.7 13.8 c0 7.4-4.6 13.2-11.5 16.1c-4.7 1.9-10.7 2.5-16.2 2.5H2.5V73.1z M16.8 97.7h2.6c6.5 0 10-2.1 10-6.3c0-2.6-0.9-4.1-2.2-5.1 c-2-1.4-5.2-1.4-8.6-1.4h-1.8V97.7z M22.7 108.9h-5.9V123H19c3.3 0 6.8 0 9.2-1.2c1.9-1 3-2.6 3-5.4 C31.2 111.8 28.2 108.9 22.7 108.9z"/><path d="M56.9 134.8V73.1h14.3v61.7H56.9z"/><path d="M113 110.4V98.6h28.7V123c-6.7 9.1-16.7 12.9-27.5 12.9c-18.6 0-32.8-13-32.8-31.9c0-18 14.6-31.9 32.7-31.9 c10.8 0 19.7 4.3 26.8 12.6l-9.9 8.6c-4.2-5.1-9.9-8.9-16.8-8.9c-10.2 0-17.6 8.7-17.6 19.6c0 11.4 6.8 19.6 17.5 19.6 c4.5 0 9.6-1.9 13.3-5.5v-7.6H113z"/><path d="M175.3 134.8V73.1h14.3v61.7H175.3z"/><path d="M202.1 73.1h18.5c16 0 34.1 8.3 34.1 30.6c0 22.8-17.8 31.1-34.9 31.1h-17.7V73.1z M216.4 123h0.8 c13.2 0 22.4-5 22.4-18.5c0-12.8-7.5-19.6-20.4-19.6h-2.8V123z"/><path d="M264.9 134.8V73.1h40.6v11.8h-26.3v12.3h26.3v11.8h-26.3v14h26.3v11.8H264.9z"/><path d="M355.7 134.8l-3.6-10.8h-20.4l-3.9 10.8h-15.8l25.7-61.7h11.4l23 61.7H355.7z M335.9 112.6h12.3l-5.9-17.8h-0.1 L335.9 112.6z"/><path d="M400.6 84c-3.3 0-6.7 1.8-6.7 5.3c0 4.5 5.6 5.6 9.5 7c8.7 3 19.4 7.1 19.4 20.5c0 13.2-12.7 19-24 19 c-9.7 0-17.3-3.9-24.1-10.8l9.3-9.1c4.8 4.4 8.4 7.8 15 7.8c4.3 0 8.6-2 8.6-6.8c0-4.8-5.7-6.8-11.3-8.8 c-8.2-3.1-16.7-7-16.7-18.9c0-11.7 10.5-17.3 20.8-17.3c8.1 0 14.5 2.6 21 7.6l-8 10C409.8 86.7 405.3 84 400.6 84z"/></g><g><path d="M9.8 169.5v17.3H6.2v-17.3h-5v-3.1h13.5v3.1H9.8z"/><path d="M30.8 186.9v-9h-9.5v9h-3.6v-20.4h3.6v8.4h9.5v-8.4h3.6v20.4H30.8z"/><path d="M39.4 186.9v-20.4h12.7v3.1H43v5.3h9.1v3.1H43v5.9h9.1v3.1H39.4z"/><path d="M61 186.9v-8.7l-6.5-11.7H59l4 7.8H63l4.1-7.8h4.2l-6.7 11.9v8.5H61z"/><path d="M77.6 174.2h-3.4l1.6-7.7h3.8L77.6 174.2z"/><path d="M89.4 166.4c3.2 0 7.3 1.7 7.3 6c0 3.3-2.3 5-4.7 5.7l6.3 8.7h-4.5l-5.8-8.3h-1.3v8.3h-3.6v-20.4H89.4z M88.7 175.4 c2.4 0 4.1-0.8 4.1-2.9c0-1.8-1.4-3-3.5-3h-2.6v5.9H88.7z"/><path d="M101.3 186.9v-20.4h12.7v3.1H105v5.3h9.1v3.1H105v5.9h9.1v3.1H101.3z"/><path d="M139.2 186.9l-10.1-13.8v13.8h-3.6v-20.4h3.2l10.2 13.8v-13.8h3.6v20.4H139.2z"/><path d="M157.1 187.2c-6 0-10.6-4.7-10.6-10.6c0-5.8 4.6-10.6 10.6-10.6c6 0 10.6 4.7 10.6 10.6 C167.7 182.5 163.2 187.2 157.1 187.2z M157.1 169.3c-3.9 0-6.8 3.2-6.8 7.4c0 4.1 2.9 7.4 6.8 7.4c3.9 0 6.8-3.2 6.8-7.4 C163.9 172.5 161.1 169.3 157.1 169.3z"/><path d="M177.7 169.5v17.3h-3.6v-17.3h-5v-3.1h13.5v3.1H177.7z"/><path d="M202.9 178.4v-3.1h8.7v7.8c-2.1 2.7-5.3 4.1-8.7 4.1c-6.2 0-10.9-4.3-10.9-10.6c0-6 4.9-10.6 10.9-10.6 c3.3 0 6.2 1.4 8.3 3.9l-2.5 2.2c-1.4-1.6-3.4-2.8-5.8-2.8c-4.1 0-7.1 3.2-7.1 7.4c0 4.5 2.9 7.4 7.1 7.4c1.9 0 3.7-0.7 5.1-2 v-3.6H202.9z"/><path d="M225.5 187.2c-6 0-10.6-4.7-10.6-10.6c0-5.8 4.6-10.6 10.6-10.6c6 0 10.6 4.7 10.6 10.6 C236.1 182.5 231.5 187.2 225.5 187.2z M225.5 169.3c-3.9 0-6.8 3.2-6.8 7.4c0 4.1 2.9 7.4 6.8 7.4c3.9 0 6.8-3.2 6.8-7.4 C232.3 172.5 229.4 169.3 225.5 169.3z"/><path d="M253.8 186.9l-10.1-13.8v13.8h-3.6v-20.4h3.2l10.2 13.8v-13.8h3.6v20.4H253.8z"/><path d="M275.2 186.9l-10.1-13.8v13.8h-3.6v-20.4h3.2l10.2 13.8v-13.8h3.6v20.4H275.2z"/><path d="M289.6 166.4h3l7.7 20.4h-4.1l-1.4-4h-7.9l-1.5 4h-4L289.6 166.4z M288 179.8h5.7l-2.8-7.8h0L288 179.8z"/><path d="M323.6 186.9v-9h-9.5v9h-3.6v-20.4h3.6v8.4h9.5v-8.4h3.6v20.4H323.6z"/><path d="M338.4 166.4h3l7.7 20.4H345l-1.4-4h-7.9l-1.5 4h-4L338.4 166.4z M336.8 179.8h5.7l-2.8-7.8h0L336.8 179.8z"/><path d="M358.5 166.4c3.4 0 7.5 1.7 7.5 6.2c0 4.6-4 6.3-7.5 6.3h-2.7v7.9h-3.6v-20.4H358.5z M355.7 175.9h2 c2.5 0 4.3-0.8 4.3-3.1c0-2-1.5-3.2-3.7-3.2h-2.6V175.9z"/><path d="M375.4 166.4c3.4 0 7.5 1.7 7.5 6.2c0 4.6-4 6.3-7.5 6.3h-2.7v7.9H369v-20.4H375.4z M372.7 175.9h2 c2.5 0 4.3-0.8 4.3-3.1c0-2-1.5-3.2-3.7-3.2h-2.6V175.9z"/><path d="M386 186.9v-20.4h12.7v3.1h-9.1v5.3h9.1v3.1h-9.1v5.9h9.1v3.1H386z"/><path d="M416.6 186.9l-10.1-13.8v13.8h-3.6v-20.4h3.2l10.2 13.8v-13.8h3.6v20.4H416.6z"/></g><g><path d="M0 0.7h10.7C21 0.7 32.4 6.2 32.4 21c0 15.2-11.4 20.7-22.4 20.7H0V0.7z M6.7 37.7c12.6 0 21.1-3.8 21.1-16.2 c0-11.1-6.7-16.9-18.3-16.9H4.3v33H6.7z"/><path d="M59.7 42.4c-11.8 0-20.9-9.5-20.9-21.2S47.9 0 59.7 0s20.9 9.5 20.9 21.2S71.6 42.4 59.7 42.4z M59.7 4 c-9.4 0-16.3 7.5-16.3 17.2s6.9 17.2 16.3 17.2c9.4 0 16.3-7.5 16.3-17.2S69.1 4 59.7 4z"/><path d="M116.6 41.7L92.2 8.8v32.9h-4.1v-41h3.2l24.5 32.9V0.7h4.1v41H116.6z"/><path d="M131.1 14.6h-3.7l2.9-13.9h4.4L131.1 14.6z"/><path d="M156.2 4.7v37h-4.3v-37h-10.6v-4h25.5v4H156.2z"/><path d="M214.7 23.5v-4h15v15.2c-3.7 4.6-9.7 7.6-16.3 7.6c-12.6 0-22.1-8.5-22.1-21.2C191.3 9 201.3 0 213.5 0 c6 0 11.5 2.8 15.2 6.9l-3.2 2.5c-2.9-3.2-7.4-5.4-12.1-5.4c-10 0-17.4 7.1-17.4 17.2c0 10.5 7 17.2 17.5 17.2 c4.7 0 8.9-1.6 11.9-4.5V23.5H214.7z"/><path d="M238.5 41.7v-41h23.8v4h-19.5v13.8h19.5v4h-19.5v15.2h19.5v4H238.5z"/><path d="M284 4.7v37h-4.3v-37h-10.6v-4h25.5v4H284z"/><path d="M332 0.7h3.9l14.3 41h-4.9l-3.1-9.3h-18l-3.5 9.3h-4.5L332 0.7z M325.7 28.4H341l-7.1-21.6h-0.1L325.7 28.4z"/><path d="M384.7 41.7L360.3 8.8v32.9h-4.1v-41h3.2l24.5 32.9V0.7h4.1v41H384.7z"/><path d="M411.8 24.2v17.5h-4.3V23.4L394.9 0.7h5.3L410 19h0.2L420 0.7h5L411.8 24.2z"/></g></g><defs><filter id="Adobe_OpacityMaskFilter" filterUnits="userSpaceOnUse" x="-632.5" y="-1157" width="598" height="598"><feColorMatrix type="matrix" values="1 0 0 0 0  0 1 0 0 0  0 0 1 0 0  0 0 0 1 0"/></filter></defs><mask maskUnits="userSpaceOnUse" x="-632.5" y="-1157" width="598" height="598" id="Mh18GW.tif_1_"><g class="st0"><g><rect x="-316.2" y="-1096.7" class="st1" width="40.7" height="8.4"/><path class="st1" d="M-605-1105.7c5.9-2.5 9.8-7.4 9.8-13.7c0-5.3-3.5-10.1-8.3-11.8c3.8-1.8 6-5.7 6-9.8c0-4.8-2.1-9-6.4-11.8 c-3.9-2.6-9.2-3.4-14.3-3.4h-14.3v52.5h13.7C-614-1103.6-608.9-1104-605-1105.7z M-620.3-1146.1h1.5c2.9 0 5.6 0 7.4 1.2 c1.1 0.8 1.9 2.2 1.9 4.4c0 3.6-3 5.4-8.6 5.4h-2.2V-1146.1z M-620.3-1125.5h5c4.7 0 7.2 2.4 7.2 6.4c0 2.4-1 3.8-2.6 4.6 c-2 1.1-5 1.1-7.8 1.1h-1.9V-1125.5z"/><rect x="-586.2" y="-1156.1" class="st1" width="12.2" height="52.5"/><path class="st1" d="M-537.4-1102.7c9.2 0 17.7-3.2 23.4-11v-20.7h-24.5v10.1h12.3v6.5c-3.2 3-7.5 4.7-11.3 4.7 c-9.2 0-14.9-7-14.9-16.7c0-9.2 6.3-16.7 15-16.7c5.9 0 10.7 3.2 14.3 7.6l8.4-7.4c-6.1-7.1-13.6-10.7-22.8-10.7 c-15.4 0-27.8 11.9-27.8 27.2C-565.3-1113.8-553.2-1102.7-537.4-1102.7z"/><rect x="-485.4" y="-1156.1" class="st1" width="12.2" height="52.5"/><path class="st1" d="M-417.8-1130.1c0-19-15.4-26-29.1-26h-15.8v52.5h15.1C-432.9-1103.6-417.8-1110.6-417.8-1130.1z M-450.4-1113.6v-32.4h2.4c11 0 17.3 5.8 17.3 16.7c0 11.5-7.8 15.8-19.1 15.8H-450.4z"/><polygon class="st1" points="-374.5,-1113.6 -396.9,-1113.6 -396.9,-1125.5 -374.5,-1125.5 -374.5,-1135.6 -396.9,-1135.6 -396.9,-1146 -374.5,-1146 -374.5,-1156.1 -409,-1156.1 -409,-1103.6 -374.5,-1103.6"/><path class="st1" d="M-352.2-1112.8h17.3l3.1 9.2h14l-19.6-52.5h-9.7l-21.8 52.5h13.4L-352.2-1112.8z M-343.2-1137.6 L-343.2-1137.6l5.1 15.2h-10.5L-343.2-1137.6z"/><path class="st1" d="M-253.6-1112.9c-5.6 0-8.7-2.9-12.8-6.7l-7.9 7.7c5.8 5.9 12.2 9.2 20.5 9.2c9.6 0 20.4-5 20.4-16.2 c0-11.5-9.1-14.9-16.5-17.5c-3.4-1.2-8.1-2.1-8.1-5.9c0-3 2.9-4.5 5.7-4.5c4.1 0 7.8 2.3 10.9 4.9l6.8-8.6 c-5.6-4.2-11-6.5-17.9-6.5c-8.8 0-17.7 4.7-17.7 14.7c0 10.1 7.3 13.4 14.3 16.1c4.7 1.7 9.6 3.4 9.6 7.5 C-246.2-1114.6-249.9-1112.9-253.6-1112.9z"/><polygon class="st1" points="-198.7,-1103.6 -186.6,-1103.6 -186.6,-1146 -174.4,-1146 -174.4,-1156.1 -210.9,-1156.1 -210.9,-1146 -198.7,-1146"/><polygon class="st1" points="-134.3,-1113.6 -156.6,-1113.6 -156.6,-1125.5 -134.3,-1125.5 -134.3,-1135.6 -156.6,-1135.6 -156.6,-1146 -134.3,-1146 -134.3,-1156.1 -168.8,-1156.1 -168.8,-1103.6 -134.3,-1103.6"/><polygon class="st1" points="-113.9,-1103.6 -102,-1120.4 -90.3,-1103.6 -74.3,-1103.6 -93.7,-1130.5 -74.9,-1156.1 -90,-1156.1 -101.5,-1140 -112.6,-1156.1 -128.6,-1156.1 -109.7,-1129.9 -129.1,-1103.6"/><polygon class="st1" points="-71,-1156.1 -71,-1146 -58.8,-1146 -58.8,-1103.6 -46.7,-1103.6 -46.7,-1146 -34.5,-1146 -34.5,-1156.1"/><rect x="-632.5" y="-997.5" class="st1" width="38.9" height="8"/><path class="st1" d="M-562.6-1006.8c5.5-2.3 9.2-7 9.2-12.9c0-5-3.3-9.5-7.8-11.1c3.5-1.7 5.7-5.4 5.7-9.2c0-4.5-2-8.5-6-11.1 c-3.7-2.4-8.7-3.2-13.5-3.2h-13.5v49.5h12.9C-571.2-1004.8-566.4-1005.2-562.6-1006.8z M-577.1-1044.9h1.4c2.8 0 5.3 0 6.9 1.1 c1.1 0.8 1.8 2.1 1.8 4.1c0 3.4-2.8 5.1-8.1 5.1h-2.1V-1044.9z M-577.1-1025.5h4.7c4.5 0 6.8 2.3 6.8 6c0 2.3-0.9 3.5-2.4 4.3 c-1.9 1-4.7 1-7.4 1h-1.8V-1025.5z"/><rect x="-545" y="-1054.3" class="st1" width="11.5" height="49.5"/><path class="st1" d="M-525.3-1029.6c0 15.1 11.4 25.6 26.3 25.6c8.7 0 16.7-3 22.1-10.3v-19.5H-500v9.5h11.6v6.1 c-3 2.8-7.1 4.4-10.7 4.4c-8.6 0-14.1-6.6-14.1-15.7c0-8.7 5.9-15.7 14.1-15.7c5.6 0 10.1 3 13.5 7.1l7.9-6.9 c-5.7-6.6-12.8-10.1-21.5-10.1C-513.6-1055.2-525.3-1044-525.3-1029.6z"/><rect x="-450" y="-1054.3" class="st1" width="11.5" height="49.5"/><path class="st1" d="M-428.5-1004.8h14.2c13.7 0 28-6.6 28-25c0-17.9-14.5-24.5-27.4-24.5h-14.8V-1004.8z M-417.1-1044.8h2.3 c10.3 0 16.3 5.4 16.3 15.7c0 10.8-7.4 14.8-18 14.8h-0.6V-1044.8z"/><path class="st1" d="M-348.4-1004.8h13.2l-18.5-49.5h-9.1l-20.6 49.5h12.7l3.1-8.7h16.3L-348.4-1004.8z M-364.3-1022.6l5.1-14.3 h0.1l4.7 14.3H-364.3z"/><polygon class="st1" points="-296.6,-1044.8 -296.6,-1054.3 -329.1,-1054.3 -329.1,-1004.8 -296.6,-1004.8 -296.6,-1014.3 -317.7,-1014.3 -317.7,-1025.5 -296.6,-1025.5 -296.6,-1035 -317.7,-1035 -317.7,-1044.8"/><polygon class="st1" points="-291.7,-1004.1 -282.4,-1000.4 -262,-1055.6 -271.3,-1059.3"/><path class="st1" d="M-240.6-1045.6c3.8 0 7.4 2.2 10.3 4.6l6.4-8.1c-5.2-4-10.3-6.1-16.8-6.1c-8.3 0-16.7 4.5-16.7 13.9 c0 9.5 6.9 12.7 13.4 15.1c4.5 1.6 9.1 3.2 9.1 7.1c0 3.8-3.5 5.4-6.9 5.4c-5.3 0-8.2-2.8-12-6.3l-7.4 7.3 c5.4 5.5 11.5 8.6 19.3 8.6c9.1 0 19.2-4.7 19.2-15.3c0-10.8-8.6-14.1-15.6-16.5c-3.2-1.1-7.6-2-7.6-5.6 C-246-1044.1-243.2-1045.6-240.6-1045.6z"/><polygon class="st1" points="-178.7,-1004.8 -178.7,-1044.8 -167.3,-1044.8 -167.3,-1054.3 -201.7,-1054.3 -201.7,-1044.8 -190.2,-1044.8 -190.2,-1004.8"/><polygon class="st1" points="-162,-1004.8 -129.5,-1004.8 -129.5,-1014.3 -150.5,-1014.3 -150.5,-1025.5 -129.5,-1025.5 -129.5,-1035 -150.5,-1035 -150.5,-1044.8 -129.5,-1044.8 -129.5,-1054.3 -162,-1054.3"/><polygon class="st1" points="-87.8,-1054.3 -98.6,-1039.1 -109,-1054.3 -124.1,-1054.3 -106.4,-1029.6 -124.6,-1004.8 -110.3,-1004.8 -99.1,-1020.7 -88,-1004.8 -73,-1004.8 -91.3,-1030.2 -73.5,-1054.3"/><polygon class="st1" points="-69.9,-1044.8 -58.4,-1044.8 -58.4,-1004.8 -47,-1004.8 -47,-1044.8 -35.5,-1044.8 -35.5,-1054.3 -69.9,-1054.3"/><rect x="-260.3" y="-914.7" class="st1" width="28.9" height="5.9"/><polygon class="st1" points="-610.4,-957.8 -617.3,-960.5 -632.5,-919.5 -625.6,-916.8"/><polygon class="st1" points="-606.7,-956.8 -606.7,-920.1 -598.2,-920.1 -598.2,-931.3 -595,-935.1 -586.5,-920.1 -576.6,-920.1 -589.3,-941.8 -576.7,-956.8 -587,-956.8 -598.2,-943.1 -598.2,-956.8"/><polygon class="st1" points="-548.5,-927.1 -564.2,-927.1 -564.2,-935.4 -548.5,-935.4 -548.5,-942.5 -564.2,-942.5 -564.2,-949.8 -548.5,-949.8 -548.5,-956.8 -572.7,-956.8 -572.7,-920.1 -548.5,-920.1"/><polygon class="st1" points="-542.2,-956.8 -542.2,-920.1 -533.7,-920.1 -533.7,-941.4 -518.2,-920.1 -510.5,-920.1 -510.5,-956.8 -519,-956.8 -519,-935.4 -534.7,-956.8"/><polygon class="st1" points="-479.9,-935.4 -495.6,-956.8 -503.1,-956.8 -503.1,-920.1 -494.6,-920.1 -494.6,-941.4 -479,-920.1 -471.4,-920.1 -471.4,-956.8 -479.9,-956.8"/><polygon class="st1" points="-458.9,-920.1 -450.4,-920.1 -450.4,-949.8 -441.9,-949.8 -441.9,-956.8 -467.4,-956.8 -467.4,-949.8 -458.9,-949.8"/><polygon class="st1" points="-406.9,-920.1 -406.9,-956.8 -415.4,-956.8 -415.4,-942.5 -429.5,-942.5 -429.5,-956.8 -438,-956.8 -438,-920.1 -429.5,-920.1 -429.5,-935.4 -415.4,-935.4 -415.4,-920.1"/><polygon class="st1" points="-403.2,-919.5 -396.2,-916.8 -381.1,-957.8 -388,-960.5"/><polygon class="st1" points="-353.2,-949.8 -353.2,-956.8 -377.3,-956.8 -377.3,-920.1 -353.2,-920.1 -353.2,-927.1 -368.8,-927.1 -368.8,-935.4 -353.2,-935.4 -353.2,-942.5 -368.8,-942.5 -368.8,-949.8"/><path class="st1" d="M-335.1-938.4c0 10.5 8.4 19 19.4 19c11 0 19.4-8.5 19.4-19c0-10.5-8.4-19-19.4-19 C-326.7-957.4-335.1-948.9-335.1-938.4z M-315.8-950.1c6 0 10.3 5.1 10.3 11.7c0 6.5-4.4 11.7-10.3 11.7s-10.3-5.1-10.3-11.7 C-326.1-944.9-321.7-950.1-315.8-950.1z"/><path class="st1" d="M-264.6-945.6c0-8.1-7.7-11.2-13.8-11.2h-12v36.8h8.5v-14.3h0.4l9.7 14.3h10.6c-2.5-3.4-7.8-10.8-11.1-15.3 C-268.2-937-264.6-940.1-264.6-945.6z M-279.5-941.4h-2.3v-8.3h3.3c2.9 0 4.9 1.7 4.9 4.3C-273.6-942.6-276.1-941.4-279.5-941.4 z"/><polygon class="st1" points="-227.7,-920.1 -219.2,-920.1 -219.2,-945.5 -209.2,-920.1 -203.1,-920.1 -192.8,-945.3 -192.8,-920.1 -184.3,-920.1 -184.3,-956.8 -196.3,-956.8 -206,-932.3 -215.4,-956.8 -227.7,-956.8"/><path class="st1" d="M-168-926.5h12.1l2.2 6.5h9.8l-13.7-36.8h-6.8l-15.3 36.8h9.4L-168-926.5z M-161.8-943.9L-161.8-943.9 l3.6 10.6h-7.4L-161.8-943.9z"/><polygon class="st1" points="-116.2,-935.4 -131.9,-956.8 -139.4,-956.8 -139.4,-920.1 -130.9,-920.1 -130.9,-941.4 -115.3,-920.1 -107.7,-920.1 -107.7,-956.8 -116.2,-956.8"/><path class="st1" d="M-89.2-956.8h-11v36.8h10.6c10.2 0 20.8-4.9 20.8-18.5C-68.9-951.9-79.6-956.8-89.2-956.8z M-91.3-927.1 h-0.5v-22.7h1.7c7.7 0 12.1 4 12.1 11.7C-77.9-930.1-83.4-927.1-91.3-927.1z"/><polygon class="st1" points="-48,-920.1 -48,-935 -35.6,-956.8 -45.5,-956.8 -51.9,-944.4 -52,-944.4 -57.7,-956.8 -68.2,-956.8 -56.5,-935.3 -56.5,-920.1"/><polygon class="st1" points="-623.1,-847.5 -619.6,-851.6 -610.2,-835.1 -599.4,-835.1 -613.3,-859.1 -599.5,-875.6 -610.8,-875.6 -623.1,-860.5 -623.1,-875.6 -632.5,-875.6 -632.5,-835.1 -623.1,-835.1"/><polygon class="st1" points="-568.4,-867.8 -568.4,-875.6 -595,-875.6 -595,-835.1 -568.4,-835.1 -568.4,-842.8 -585.6,-842.8 -585.6,-852 -568.4,-852 -568.4,-859.8 -585.6,-859.8 -585.6,-867.8"/><polygon class="st1" points="-552.1,-858.6 -534.9,-835.1 -526.4,-835.1 -526.4,-875.6 -535.8,-875.6 -535.8,-852 -553.2,-875.6 -561.4,-875.6 -561.4,-835.1 -552.1,-835.1"/><polygon class="st1" points="-483.2,-835.1 -483.2,-875.6 -492.6,-875.6 -492.6,-852 -509.9,-875.6 -518.2,-875.6 -518.2,-835.1 -508.8,-835.1 -508.8,-858.6 -491.7,-835.1"/><polygon class="st1" points="-448.4,-867.8 -448.4,-875.6 -475,-875.6 -475,-835.1 -448.4,-835.1 -448.4,-842.8 -465.6,-842.8 -465.6,-852 -448.4,-852 -448.4,-859.8 -465.6,-859.8 -465.6,-867.8"/><polygon class="st1" points="-426.5,-835.1 -426.5,-867.8 -417.2,-867.8 -417.2,-875.6 -445.3,-875.6 -445.3,-867.8 -435.9,-867.8 -435.9,-835.1"/><polygon class="st1" points="-403.4,-852 -387.9,-852 -387.9,-835.1 -378.5,-835.1 -378.5,-875.6 -387.9,-875.6 -387.9,-859.8 -403.4,-859.8 -403.4,-875.6 -412.8,-875.6 -412.8,-835.1 -403.4,-835.1"/><path class="st1" d="M-314.6-855.3c0-11.6-9.3-21-21.4-21c-12.1 0-21.4 9.4-21.4 21c0 11.6 9.3 21 21.4 21 C-323.9-834.4-314.6-843.7-314.6-855.3z M-347.4-855.3c0-7.2 4.8-12.9 11.4-12.9c6.6 0 11.4 5.7 11.4 12.9s-4.8 12.9-11.4 12.9 C-342.6-842.5-347.4-848.1-347.4-855.3z"/><path class="st1" d="M-307.9-875.6v40.5h9.4v-15.8h0.4l10.7 15.8h11.7c-2.7-3.7-8.6-11.9-12.2-16.9c4.4-1.7 8.4-5.2 8.4-11.3 c0-8.9-8.5-12.3-15.2-12.3H-307.9z M-289.5-863.1c0 3.1-2.8 4.5-6.5 4.5h-2.5v-9.2h3.6C-291.7-867.8-289.5-865.9-289.5-863.1z"/><polygon class="st1" points="-222.8,-835.1 -222.8,-875.6 -236,-875.6 -246.8,-848.6 -257.1,-875.6 -270.7,-875.6 -270.7,-835.1 -261.3,-835.1 -261.3,-863.1 -250.2,-835.1 -243.5,-835.1 -232.2,-862.9 -232.2,-835.1"/><path class="st1" d="M-193.4-875.6h-7.5l-16.9 40.5h10.4l2.5-7.1h13.4l2.4 7.1h10.8L-193.4-875.6z M-202.1-849.6l4.2-11.7h0.1 l3.9 11.7H-202.1z"/><polygon class="st1" points="-147.7,-852 -165,-875.6 -173.3,-875.6 -173.3,-835.1 -163.9,-835.1 -163.9,-858.6 -146.7,-835.1 -138.3,-835.1 -138.3,-875.6 -147.7,-875.6"/><path class="st1" d="M-130.1-875.6v40.5h11.6c11.2 0 22.9-5.4 22.9-20.4c0-14.7-11.9-20.1-22.4-20.1H-130.1z M-105.4-855 c0 8.9-6 12.2-14.7 12.2h-0.5v-25h1.9C-110.4-867.8-105.4-863.4-105.4-855z"/><polygon class="st1" points="-76.7,-861.9 -76.8,-861.9 -83.1,-875.6 -94.7,-875.6 -81.9,-851.9 -81.9,-835.1 -72.5,-835.1 -72.5,-851.6 -58.8,-875.6 -69.7,-875.6"/><polygon class="st1" points="-60,-834.5 -52.3,-831.5 -35.6,-876.6 -43.2,-879.7"/><path class="st1" d="M-603-747.3c6.3-2.7 10.5-8 10.5-14.7c0-5.7-3.7-10.8-8.9-12.6c4-1.9 6.4-6.1 6.4-10.5 c0-5.2-2.3-9.7-6.8-12.6c-4.2-2.7-9.9-3.6-15.4-3.6h-15.4v56.3h14.7C-612.7-745.1-607.2-745.6-603-747.3z M-619.5-790.7h1.6 c3.1 0 6 0 7.9 1.3c1.2 0.9 2 2.3 2 4.7c0 3.9-3.2 5.8-9.2 5.8h-2.3V-790.7z M-619.5-768.7h5.4c5.1 0 7.7 2.6 7.7 6.8 c0 2.6-1 4-2.7 4.9c-2.2 1.1-5.4 1.1-8.4 1.1h-2V-768.7z"/><rect x="-582.8" y="-801.4" class="st1" width="13" height="56.3"/><path class="st1" d="M-530.5-744.1c9.9 0 19-3.5 25.1-11.8v-22.2h-26.2v10.8h13.2v6.9c-3.4 3.2-8 5-12.2 5 c-9.8 0-16-7.5-16-17.9c0-9.9 6.8-17.9 16.1-17.9c6.4 0 11.5 3.5 15.4 8.1l9-7.9c-6.5-7.6-14.6-11.5-24.5-11.5 c-16.5 0-29.9 12.7-29.9 29.1C-560.5-756-547.5-744.1-530.5-744.1z"/><rect x="-474.8" y="-801.4" class="st1" width="13" height="56.3"/><path class="st1" d="M-402.2-773.5c0-20.4-16.5-27.9-31.1-27.9h-16.9v56.3h16.2C-418.5-745.1-402.2-752.7-402.2-773.5z M-437.3-755.9v-34.8h2.6c11.8 0 18.6 6.2 18.6 17.9c0 12.3-8.4 16.9-20.4 16.9H-437.3z"/><polygon class="st1" points="-355.9,-755.9 -379.9,-755.9 -379.9,-768.7 -355.9,-768.7 -355.9,-779.5 -379.9,-779.5 -379.9,-790.6 -355.9,-790.6 -355.9,-801.4 -392.9,-801.4 -392.9,-745.1 -355.9,-745.1"/><path class="st1" d="M-316.1-801.4h-10.4l-23.4 56.3h14.4l3.5-9.9h18.6l3.3 9.9h15L-316.1-801.4z M-328.1-765.4l5.8-16.3h0.1 l5.4 16.3H-328.1z"/><path class="st1" d="M-248.8-761.5c0-12.3-9.7-16-17.7-18.8c-3.6-1.3-8.7-2.3-8.7-6.4c0-3.2 3.1-4.8 6.1-4.8 c4.3 0 8.4 2.5 11.7 5.2l7.3-9.2c-6-4.5-11.8-6.9-19.2-6.9c-9.4 0-19 5.1-19 15.8c0 10.9 7.8 14.4 15.3 17.2 c5.1 1.9 10.3 3.6 10.3 8c0 4.3-3.9 6.2-7.9 6.2c-6 0-9.3-3.1-13.7-7.2l-8.5 8.3c6.2 6.3 13.1 9.8 22 9.8 C-260.4-744.1-248.8-749.4-248.8-761.5z"/><polygon class="st1" points="-198.6,-745.1 -198.6,-790.6 -185.6,-790.6 -185.6,-801.4 -224.7,-801.4 -224.7,-790.6 -211.7,-790.6 -211.7,-745.1"/><polygon class="st1" points="-142.5,-755.9 -166.5,-755.9 -166.5,-768.7 -142.5,-768.7 -142.5,-779.5 -166.5,-779.5 -166.5,-790.6 -142.5,-790.6 -142.5,-801.4 -179.6,-801.4 -179.6,-745.1 -142.5,-745.1"/><polygon class="st1" points="-78.9,-801.4 -95.1,-801.4 -107.4,-784.1 -119.3,-801.4 -136.4,-801.4 -116.2,-773.3 -137,-745.1 -120.7,-745.1 -107.9,-763.2 -95.4,-745.1 -78.2,-745.1 -99.1,-774"/><polygon class="st1" points="-74.7,-790.6 -61.7,-790.6 -61.7,-745.1 -48.6,-745.1 -48.6,-790.6 -35.6,-790.6 -35.6,-801.4 -74.7,-801.4"/><rect x="-579.6" y="-664.4" class="st1" width="34.2" height="7"/><rect x="-496.4" y="-664.4" class="st1" width="34.2" height="7"/><rect x="-218.5" y="-664.4" class="st1" width="34.2" height="7"/><rect x="-148.2" y="-664.4" class="st1" width="34.2" height="7"/><path class="st1" d="M-609.7-672.5c4.9-2.1 8.1-6.2 8.1-11.4c0-4.4-2.9-8.3-6.8-9.8c3.1-1.5 5-4.7 5-8.1c0-4-1.7-7.5-5.3-9.8 c-3.2-2.1-7.7-2.8-11.9-2.8h-11.9v43.5h11.4C-617.2-670.8-613-671.1-609.7-672.5z M-622.4-706h1.2c2.4 0 4.7 0 6.1 1 c0.9 0.7 1.6 1.8 1.6 3.6c0 3-2.5 4.5-7.1 4.5h-1.8V-706z M-622.4-689h4.2c3.9 0 6 2 6 5.3c0 2-0.8 3.1-2.1 3.8 c-1.7 0.9-4.2 0.9-6.5 0.9h-1.6V-689z"/><rect x="-594.1" y="-714.3" class="st1" width="10.1" height="43.5"/><path class="st1" d="M-519.5-670c7.7 0 14.7-2.7 19.4-9.1v-17.2h-20.3v8.3h10.2v5.3c-2.6 2.5-6.2 3.9-9.4 3.9 c-7.6 0-12.4-5.8-12.4-13.8c0-7.7 5.2-13.8 12.4-13.8c4.9 0 8.9 2.7 11.9 6.3l7-6.1c-5-5.8-11.3-8.9-18.9-8.9 c-12.8 0-23.1 9.8-23.1 22.5C-542.6-679.2-532.6-670-519.5-670z"/><rect x="-442.2" y="-714.3" class="st1" width="10.1" height="43.5"/><path class="st1" d="M-386.1-692.7c0-15.7-12.8-21.6-24.1-21.6h-13.1v43.5h12.5C-398.7-670.8-386.1-676.6-386.1-692.7z M-413.2-679.1V-706h2c9.1 0 14.4 4.8 14.4 13.8c0 9.5-6.5 13.1-15.8 13.1H-413.2z"/><polygon class="st1" points="-350.3,-706 -350.3,-714.3 -378.9,-714.3 -378.9,-670.8 -350.3,-670.8 -350.3,-679.1 -368.8,-679.1 -368.8,-689 -350.3,-689 -350.3,-697.3 -368.8,-697.3 -368.8,-706"/><path class="st1" d="M-327.5-714.3l-18.1 43.5h11.1l2.7-7.7h14.4l2.6 7.7h11.6l-16.2-43.5H-327.5z M-328.9-686.5l4.5-12.6h0.1 l4.2 12.6H-328.9z"/><path class="st1" d="M-284.3-678.5c-4.7 0-7.2-2.4-10.6-5.5l-6.5 6.4c4.8 4.9 10.1 7.6 17 7.6c8 0 16.9-4.1 16.9-13.4 c0-9.5-7.5-12.4-13.7-14.5c-2.8-1-6.7-1.7-6.7-4.9c0-2.5 2.4-3.7 4.7-3.7c3.4 0 6.5 1.9 9 4l5.7-7.1c-4.6-3.5-9.1-5.3-14.8-5.3 c-7.3 0-14.7 3.9-14.7 12.2c0 8.4 6 11.1 11.8 13.3c3.9 1.4 8 2.8 8 6.2C-278.2-679.9-281.3-678.5-284.3-678.5z"/><polygon class="st1" points="-248.9,-706 -238.9,-706 -238.9,-670.8 -228.8,-670.8 -228.8,-706 -218.7,-706 -218.7,-714.3 -248.9,-714.3"/><polygon class="st1" points="-151.2,-706 -151.2,-714.3 -179.8,-714.3 -179.8,-670.8 -151.2,-670.8 -151.2,-679.1 -169.8,-679.1 -169.8,-689 -151.2,-689 -151.2,-697.3 -169.8,-697.3 -169.8,-706"/><polygon class="st1" points="-81.6,-714.3 -91.1,-700.9 -100.3,-714.3 -113.5,-714.3 -97.9,-692.6 -114,-670.8 -101.4,-670.8 -91.5,-684.8 -81.8,-670.8 -68.6,-670.8 -84.7,-693.1 -69.1,-714.3"/><polygon class="st1" points="-65.8,-706 -55.8,-706 -55.8,-670.8 -45.7,-670.8 -45.7,-706 -35.6,-706 -35.6,-714.3 -65.8,-714.3"/><rect x="-632.5" y="-567.7" class="st1" width="40.8" height="8.4"/><path class="st1" d="M-557.6-602.7c3.7-1.8 5.9-5.6 5.9-9.7c0-4.8-2.1-8.9-6.3-11.7c-3.9-2.5-9.1-3.3-14.2-3.3h-14.2v52h13.6 c4.7 0 9.7-0.4 13.7-2.1c5.8-2.5 9.7-7.4 9.7-13.6C-549.5-596.3-552.9-601-557.6-602.7z M-574.4-617.5h1.5c2.9 0 5.6 0 7.3 1.2 c1.1 0.8 1.9 2.2 1.9 4.3c0 3.6-3 5.3-8.5 5.3h-2.2V-617.5z M-564.8-586.3c-2 1-5 1-7.7 1h-1.9v-11.9h5c4.7 0 7.1 2.4 7.1 6.3 C-562.2-588.5-563.2-587.1-564.8-586.3z"/><rect x="-540.6" y="-627.4" class="st1" width="12" height="52"/><path class="st1" d="M-493.3-595.9h12.2v6.4c-3.1 3-7.4 4.6-11.2 4.6c-9.1 0-14.8-6.9-14.8-16.5c0-9.1 6.2-16.5 14.9-16.5 c5.9 0 10.6 3.2 14.2 7.5l8.3-7.3c-6-7-13.4-10.6-22.6-10.6c-15.2 0-27.6 11.7-27.6 26.9c0 15.9 12 26.9 27.6 26.9 c9.1 0 17.5-3.2 23.2-10.8v-20.5h-24.2V-595.9z"/><rect x="-440.8" y="-627.4" class="st1" width="12" height="52"/><path class="st1" d="M-402.7-627.4h-15.6v52h14.9c14.4 0 29.4-7 29.4-26.2C-373.9-620.4-389.1-627.4-402.7-627.4z M-405.6-585.4 h-0.7v-32.1h2.4c10.8 0 17.2 5.7 17.2 16.5C-386.7-589.6-394.4-585.4-405.6-585.4z"/><polygon class="st1" points="-365.3,-575.4 -331.1,-575.4 -331.1,-585.4 -353.3,-585.4 -353.3,-597.2 -331.1,-597.2 -331.1,-607.1 -353.3,-607.1 -353.3,-617.4 -331.1,-617.4 -331.1,-627.4 -365.3,-627.4"/><path class="st1" d="M-304-627.4l-21.6 52h13.3l3.3-9.1h17.2l3 9.1h13.8l-19.4-52H-304z M-305.5-594.1l5.3-15h0.1l5 15H-305.5z"/><path class="st1" d="M-248.6-607.9c-3.3-1.2-8-2.1-8-5.9c0-3 2.9-4.5 5.6-4.5c4 0 7.7 2.3 10.8 4.8l6.8-8.5 c-5.5-4.2-10.8-6.4-17.7-6.4c-8.7 0-17.5 4.7-17.5 14.6c0 10 7.2 13.3 14.1 15.9c4.7 1.7 9.5 3.3 9.5 7.4c0 4-3.6 5.7-7.3 5.7 c-5.6 0-8.6-2.9-12.6-6.6l-7.8 7.6c5.7 5.8 12.1 9.1 20.3 9.1c9.5 0 20.2-4.9 20.2-16C-232.3-601.9-241.3-605.3-248.6-607.9z"/><polygon class="st1" points="-210.1,-617.4 -198.1,-617.4 -198.1,-575.4 -186,-575.4 -186,-617.4 -174,-617.4 -174,-627.4 -210.1,-627.4"/><polygon class="st1" points="-168.4,-575.4 -134.3,-575.4 -134.3,-585.4 -156.4,-585.4 -156.4,-597.2 -134.3,-597.2 -134.3,-607.1 -156.4,-607.1 -156.4,-617.4 -134.3,-617.4 -134.3,-627.4 -168.4,-627.4"/><polygon class="st1" points="-75.5,-627.4 -90.5,-627.4 -101.8,-611.4 -112.8,-627.4 -128.6,-627.4 -110,-601.5 -129.2,-575.4 -114.2,-575.4 -102.4,-592.1 -90.8,-575.4 -75,-575.4 -94.2,-602.1"/><polygon class="st1" points="-71.7,-617.4 -59.7,-617.4 -59.7,-575.4 -47.6,-575.4 -47.6,-617.4 -35.6,-617.4 -35.6,-627.4 -71.7,-627.4"/></g></g></mask><g id="Mh18GW.tif" class="st2"><g><image width="700" height="700" id="Layer_0_2_" xlink:href="6A7408C90AC7ADBB.png" transform="matrix(0.8543 0 0 0.8543 -632.5 -1157)" class="style1"></image></g></g><rect x="396" y="-1129.3" width="1126" height="917" class="style2"/><text transform="matrix(1 0 0 1 395.9583 -1075.2751)"><tspan x="0" y="0" class="style3">BIG IDEA_S TEXT</tspan><tspan x="0" y="86.4" class="style3">_BIG IDAE/S TEXT</tspan><tspan x="0" y="172.8" class="style3">/KENNTH/E OR_MANDY</tspan><tspan x="0" y="259.2" class="style3">KENNETH ORMANDY/</tspan><tspan x="0" y="345.6" class="style3">BIG IDEAS TEXT</tspan><tspan x="0" y="432" class="style3">BI_G_ IDEAS T_E_XT</tspan><tspan x="0" y="518.4" class="style3">_BIG IDEAS TEXT</tspan></text><rect x="1484" y="-437.9" width="1126" height="917" class="style2"/><text transform="matrix(1 0 0 1 1483.9583 -383.9335)"><tspan x="0" y="0" class="style4">do</tspan><tspan x="86.1" y="0" class="style5">n</tspan><tspan x="123.5" y="0" class="style6">&#8217;</tspan><tspan x="140" y="0" class="style4">t get </tspan><tspan x="307.5" y="0" class="style7">an</tspan><tspan x="386.3" y="0" class="style4">y</tspan><tspan x="0" y="86.4" class="style3">BIG IDEAS</tspan><tspan x="0" y="172.8" class="style8">THE</tspan><tspan x="130.8" y="172.8" class="style9">Y</tspan><tspan x="175.8" y="172.8" class="style10">&#8217;</tspan><tspan x="195.5" y="172.8" class="style8">RE N</tspan><tspan x="354.3" y="172.8" class="style10">O</tspan><tspan x="413" y="172.8" class="style8">T GO</tspan><tspan x="583.8" y="172.8" class="style10">N</tspan><tspan x="636.5" y="172.8" class="style8">NA </tspan><tspan x="757.1" y="172.8" class="style8">HA</tspan><tspan x="860" y="172.8" class="style8">PPEN</tspan></text><g><path d="M-461.9-277.9c-2.7 3.6-7 5.4-11.4 5.4c-10.4 0-18.1-8.3-18.1-18.4c0-10.1 7.8-18.7 18.2-18.7c4 0 8.3 1.5 11.3 4.3v-22.5 h4.9v54.4h-4.9V-277.9z M-461.9-299.5c-2.6-3.4-7.2-5.6-11.2-5.6c-7.7 0-13.2 6.4-13.2 13.9c0 7.6 5.4 14.2 13.2 14.2 c4.3 0 9.2-2.5 11.2-6.7V-299.5z"/><path d="M-411.4-291c0 10.3-7.3 18.6-17.8 18.6c-10.5 0-17.8-8.3-17.8-18.6c0-10.3 7.3-18.6 17.8-18.6 C-418.7-309.5-411.4-301.3-411.4-291z M-429.3-305c-7.9 0-12.8 6.7-12.8 14.1c0 7.4 4.9 14.1 12.8 14.1c7.9 0 12.8-6.7 12.8-14.1 C-416.5-298.4-421.4-305-429.3-305z"/><path d="M-396.6-308.7v6.2c2.8-4.7 7.2-7.1 12.6-7.1c10.1 0 13.3 6.4 13.3 17.1v19.1h-4.9v-18.3c0-6.7-1.2-13.4-9.1-13.4 c-5.3 0-9.6 3.8-11.9 8.3v23.5h-4.9v-35.4H-396.6z"/><path d="M-361.1-306.8h-4.6l3.6-17.2h5.5L-361.1-306.8z"/><path d="M-341.6-304.2v19.5c0 6.4 2.2 7.5 5.4 7.5c1.3 0 2.8-0.4 4.3-0.9l1.2 3.9c-1.6 0.9-3.6 1.5-5.7 1.5 c-6.9 0-10.3-4.1-10.3-11.5v-20.1h-5v-4.5h5v-8.8h4.9v8.8h10.3v4.5H-341.6z"/><path d="M-273.6-275.3c0 12.5-8.4 18-17.8 18c-5.4 0-11.1-2-15.5-5l2-4.1c3.1 2.5 8.3 4.6 13.4 4.6c6.7 0 13-3.3 13-12v-4.9 c-2.7 3.6-7 5.4-11.4 5.4c-10.4 0-18.1-8.3-18.1-18s7.8-18.3 18.2-18.3c4 0 8.3 1.5 11.3 4.3v-3.5h4.9V-275.3z M-278.5-299.5 c-2.6-3.4-7.2-5.6-11.2-5.6c-7.7 0-13.2 6.4-13.2 13.5c0 7.2 5.4 13.8 13.2 13.8c4.3 0 9.2-2.5 11.2-6.7V-299.5z"/><path d="M-259.2-289.7c0.4 6.8 4.9 13.1 12.6 13.1c4.7 0 8.7-1.3 11.2-6.1l3.5 2.2c-2.8 5.3-9 8-14.3 8 c-11.6 0-17.9-8.4-17.9-18.8c0-10.4 7.7-18.3 17.3-18.3c9.1 0 15.7 7.8 15.7 16.5c0 1.2-0.1 2.6-0.2 3.3H-259.2z M-246.9-305.3 c-6.8 0-11.2 4.8-12.2 11.4h23.1C-236.3-299.9-240.8-305.3-246.9-305.3z"/><path d="M-215.5-304.2v19.5c0 6.4 2.2 7.5 5.4 7.5c1.3 0 2.8-0.4 4.3-0.9l1.2 3.9c-1.6 0.9-3.6 1.5-5.7 1.5 c-6.9 0-10.3-4.1-10.3-11.5v-20.1h-5v-4.5h5v-8.8h4.9v8.8h10.3v4.5H-215.5z"/><path d="M-157.4-277.4c-3.4 3.7-7.5 5-11.6 5c-6.5 0-12.2-3.8-12.2-10.5c0-8.7 8.1-12.1 15.7-12.1c2.4 0 4.9 0.3 8 1.1v-2 c0-5.9-2.9-9.1-9.1-9.1c-4.1 0-8.8 1.5-11.5 3l-1.7-4.4c3.3-1.5 8.8-3.1 13.4-3.1c10.5 0 13.8 5.5 13.8 14.6v21.6h-4.4 L-157.4-277.4z M-165.8-291c-4.9 0-10.5 2-10.5 7.5c0 4.3 3.3 7 7.5 7c4.1 0 8-2.1 11.3-5.3v-8.2 C-160.6-290.7-163.3-291-165.8-291z"/><path d="M-136.5-308.7v6.2c2.8-4.7 7.2-7.1 12.6-7.1c10.1 0 13.3 6.4 13.3 17.1v19.1h-4.9v-18.3c0-6.7-1.2-13.4-9.1-13.4 c-5.3 0-9.6 3.8-11.9 8.3v23.5h-4.9v-35.4H-136.5z"/><path d="M-99.7-308.7l10 29.9l10.7-29.9h5.3l-19.2 51.5l-4.2-1.7l4.7-12.8l-12.6-37.1H-99.7z"/></g></g><g id="Layer_2"></g></svg>